<mxfile host="app.diagrams.net" modified="2023-09-29T01:37:19.966Z" agent="Mozilla/5.0 (Windows NT 10.0; Win64; x64; rv:109.0) Gecko/20100101 Firefox/117.0" etag="8z51Fu6c-M5ACf_2cfof" version="21.7.4" type="github">
  <diagram name="Page-1" id="iXnrICv62FiF0PsIKTrU">
    <mxGraphModel dx="2074" dy="1134" grid="1" gridSize="10" guides="1" tooltips="1" connect="1" arrows="1" fold="1" page="1" pageScale="1" pageWidth="827" pageHeight="1169" math="0" shadow="0">
      <root>
        <mxCell id="0" />
        <mxCell id="1" parent="0" />
        <mxCell id="w7AX4_7q9Wx14bHlkJEM-1" value="" style="rounded=0;whiteSpace=wrap;html=1;" vertex="1" parent="1">
          <mxGeometry x="220" y="180" width="120" height="60" as="geometry" />
        </mxCell>
        <mxCell id="w7AX4_7q9Wx14bHlkJEM-2" value="" style="ellipse;whiteSpace=wrap;html=1;aspect=fixed;" vertex="1" parent="1">
          <mxGeometry x="480" y="170" width="80" height="80" as="geometry" />
        </mxCell>
        <mxCell id="w7AX4_7q9Wx14bHlkJEM-3" value="" style="shape=stencil(tZThDoIgEICfhr8NYT1Ao3oP0jOZBAwo6+1D0S1NXWu4Oba70+8+kRNR5ipuABFcIXpEhGQYhzXEzSTmzkDuY/LBreAXCbHivNU1NKLwPUOoCqzwbZWeED6Ee9qLslwrFSBCKzeqfNQDjAsVnsXPCOvbv0aRCfwbeLC9ZMwicv4du9tvA8428h1jB/vkvunAY+Nsqw+XDJz9j6UsZJYON2UXntdXq++qmJWx7Vytn/fpME6HdVZooS1lpbaw4lMKKeNMr+wgSCmMg8TeA32xffdiX/5dNv7IusQb);whiteSpace=wrap;html=1;" vertex="1" parent="1">
          <mxGeometry x="354" y="350" width="120" height="120" as="geometry" />
        </mxCell>
      </root>
    </mxGraphModel>
  </diagram>
</mxfile>
